PathFileType	4	(X/Y/Z)	/Users/itak/Documents/Research/Walk-IL/dataset/trc/00114_00007.trc
DataRate	CameraRate	NumFrames	NumMarkers	Units	OrigDataRate	OrigDataStartFrame	OrigNumFrames
100.000000	100.000000	4	53	mm	100.000000	139	559
Frame#	Time	RPSI			LPSI			L3			STRN			T10			C7			CLAV			RBAK			LBAK			LSHO			LUPA			LAEL			LAOL			LWTS			LWPS			LFRA			LIFD			LHPS			LHTS			RSHO			RUPA			RAEL			RAOL			RWTS			RWPS			RFRA			RIFD			RHTS			RHPS			RBHD			LFHD			RFHD			LBHD			LHIP			RHIP			RASI			LASI			LKNE			LTHI			LANK			LTIP			LTOE			LMT1			LMT5			LHEE			RKNE			RTHI			RANK			RTIP			RTOE			RMT1			RMT5			RHEE			
		X1	Y1	Z1	X2	Y2	Z2	X3	Y3	Z3	X4	Y4	Z4	X5	Y5	Z5	X6	Y6	Z6	X7	Y7	Z7	X8	Y8	Z8	X9	Y9	Z9	X10	Y10	Z10	X11	Y11	Z11	X12	Y12	Z12	X13	Y13	Z13	X14	Y14	Z14	X15	Y15	Z15	X16	Y16	Z16	X17	Y17	Z17	X18	Y18	Z18	X19	Y19	Z19	X20	Y20	Z20	X21	Y21	Z21	X22	Y22	Z22	X23	Y23	Z23	X24	Y24	Z24	X25	Y25	Z25	X26	Y26	Z26	X27	Y27	Z27	X28	Y28	Z28	X29	Y29	Z29	X30	Y30	Z30	X31	Y31	Z31	X32	Y32	Z32	X33	Y33	Z33	X34	Y34	Z34	X35	Y35	Z35	X36	Y36	Z36	X37	Y37	Z37	X38	Y38	Z38	X39	Y39	Z39	X40	Y40	Z40	X41	Y41	Z41	X42	Y42	Z42	X43	Y43	Z43	X44	Y44	Z44	X45	Y45	Z45	X46	Y46	Z46	X47	Y47	Z47	X48	Y48	Z48	X49	Y49	Z49	X50	Y50	Z50	X51	Y51	Z51	X52	Y52	Z52	X53	Y53	Z53	

140	1.39	393.4710693359375	1125.897583007812	-266.2868347167969	401.8222351074219	1126.138671875	-400.7809448242188	391.5255737304688	1158.10205078125	-336.2678527832031	602.0601196289062	1365.88623046875	-329.2217102050781	349.1135559082031	1306.676513671875	-341.43505859375	373.9792785644531	1599.705078125	-356.8224792480469	561.5237426757812	1499.421020507812	-335.7911682128906	322.2777099609375	1414.59130859375	-270.174560546875	373.3600463867188	1578.733154296875	-458.0373229980469	464.787109375	1568.106811523438	-520.6519165039062	452.4286193847656	1434.613403320312	-590.4452514648438	476.851318359375	1215.343017578125	-605.5787963867188	406.8089294433594	1202.076293945312	-554.271484375	582.0255737304688	963.484130859375	-548.9650268554688	503.4105529785156	933.6004028320312	-581.5968017578125	497.6855163574219	1099.894165039062	-605.4451904296875	596.1350708007812	769.3602294921875	-520.9207763671875	534.1470947265625	858.9929809570312	-578.2127075195312	600.5643920898438	873.955322265625	-556.9925537109375	419.5585327148438	1583.846923828125	-171.3705596923828	400.2908020019531	1510.568603515625	-108.1234741210938	394.71337890625	1215.958862304688	-87.54419708251953	400.3674621582031	1214.486206054688	-184.1360168457031	545.1368408203125	978.2532348632812	-81.3319091796875	468.8276977539062	958.9468994140625	-59.15982818603516	418.377685546875	1143.69091796875	-69.01123809814453	578.8253173828125	784.8167114257812	-92.55181121826172	577.986083984375	871.298583984375	-70.43004608154297	508.7752685546875	861.0186767578125	-48.96546173095703	405.2970275878906	1772.892578125	-275.3094482421875	562.5567016601562	1845.034423828125	-411.3740539550781	562.1103515625	1854.4755859375	-282.1465148925781	395.1298828125	1766.858032226562	-410.4037475585938	498.9377746582031	1038.802001953125	-502.421875	517.6299438476562	1032.803344726562	-142.7925415039062	597.9395751953125	1108.119506835938	-192.8983917236328	604.64306640625	1106.595336914062	-459.2895202636719	523.4874267578125	538.384765625	-474.6940307617188	502.4172973632812	683.387451171875	-501.0177307128906	403.3980712890625	35.37167358398438	-470.3726806640625	418.0728149414062	291.9369812011719	-502.5076293945312	636.5701904296875	37.63128280639648	-417.3154296875	555.398681640625	42.581787109375	-382.7155151367188	527.3547973632812	34.35268020629883	-497.6763610839844	335.2202758789062	37.94551086425781	-408.0077209472656	511.6321411132812	539.993408203125	-179.0694732666016	537.4187622070312	819.1495971679688	-149.4421691894531	402.7745056152344	30.60827445983887	-201.8012084960938	483.9693908691406	406.88916015625	-168.9806518554688	637.7256469726562	42.87065505981445	-247.3246307373047	576.8203125	29.76822280883789	-291.3275756835938	537.6819458007812	39.39193344116211	-177.2136383056641	346.6475524902344	32.904541015625	-252.8792724609375	
141	1.4	393.4221496582031	1125.921875	-266.04248046875	401.7651062011719	1126.166015625	-400.5502624511719	391.4918823242188	1158.104858398438	-336.1061096191406	602.0285034179688	1365.864868164062	-329.0106811523438	349.0061950683594	1306.699584960938	-341.211669921875	373.9510192871094	1599.706420898438	-356.6108093261719	561.4818115234375	1499.399780273438	-335.5531005859375	322.2013549804688	1414.598876953125	-269.9646911621094	373.3595275878906	1578.722412109375	-457.8234558105469	464.829833984375	1568.096435546875	-520.438720703125	452.3175659179688	1434.59619140625	-590.2504272460938	476.7189636230469	1215.325561523438	-605.3526611328125	406.7165222167969	1202.088134765625	-554.0636596679688	581.8153076171875	963.428466796875	-548.7598266601562	503.2178344726562	933.5958862304688	-581.4296875	497.571044921875	1099.8779296875	-605.2632446289062	595.8593139648438	769.3309326171875	-520.7492065429688	533.9179077148438	858.9935302734375	-577.9906005859375	600.387451171875	873.9498291015625	-556.8030395507812	419.531005859375	1583.857055664062	-171.1375885009766	400.2610168457031	1510.581420898438	-107.9109954833984	394.6755065917969	1215.98193359375	-87.31345367431641	400.2655334472656	1214.499633789062	-183.8900756835938	545.0285034179688	978.237060546875	-81.05142974853516	468.7227478027344	958.9566650390625	-58.89040374755859	418.2754211425781	1143.710327148438	-68.77025604248047	578.6353759765625	784.7733154296875	-92.25682067871094	577.78857421875	871.265625	-70.16326141357422	508.6257019042969	861.0175170898438	-48.68594741821289	405.2742919921875	1772.88671875	-275.0343627929688	562.5193481445312	1845.061889648438	-411.1518249511719	562.0910034179688	1854.449584960938	-281.8903503417969	395.1033630371094	1766.908935546875	-410.1572265625	498.9489135742188	1038.80322265625	-502.2191772460938	517.5962524414062	1032.796020507812	-142.6067352294922	597.9122314453125	1108.100463867188	-192.6963500976562	604.6813354492188	1106.652099609375	-459.1588439941406	523.4768676757812	538.4097290039062	-474.6136474609375	502.4027099609375	683.4179077148438	-500.8798828125	403.3970642089844	35.38505935668945	-470.3703002929688	418.0755920410156	291.9403686523438	-502.4317932128906	636.5812377929688	37.63047027587891	-417.3190307617188	555.40283203125	42.57656860351562	-382.7112121582031	527.3544311523438	34.35970306396484	-497.6705932617188	335.2259826660156	37.9404411315918	-407.9955749511719	511.5299682617188	539.99267578125	-178.9356536865234	537.2987060546875	819.183837890625	-149.2569885253906	402.7803039550781	30.59151649475098	-201.7949981689453	483.9020690917969	406.8832092285156	-168.8695831298828	637.7152709960938	42.87271881103516	-247.3224334716797	576.814208984375	29.77774620056152	-291.3293151855469	537.679443359375	39.39426422119141	-177.205078125	346.6395568847656	32.89780044555664	-252.8688812255859	
142	1.41	393.3768920898438	1125.943237304688	-265.8072204589844	401.7066345214844	1126.203247070312	-400.3218383789062	391.4707641601562	1158.089477539062	-335.9473876953125	601.9821166992188	1365.837280273438	-328.7965698242188	348.9032592773438	1306.716552734375	-340.9981079101562	373.9199829101562	1599.70751953125	-356.388671875	561.4307861328125	1499.374755859375	-335.3091430664062	322.1285705566406	1414.60791015625	-269.7367858886719	373.3441467285156	1578.70947265625	-457.6122741699219	464.8561706542969	1568.077514648438	-520.223876953125	452.204833984375	1434.580200195312	-590.05615234375	476.573974609375	1215.308959960938	-605.1351928710938	406.6195983886719	1202.094360351562	-553.8502197265625	581.6194458007812	963.3866577148438	-548.5515747070312	503.0358581542969	933.5829467773438	-581.2391357421875	497.4628295898438	1099.869995117188	-605.0855102539062	595.6397094726562	769.3124389648438	-520.5645141601562	533.7139892578125	859.002197265625	-577.7715454101562	600.2302856445312	873.960205078125	-556.6058349609375	419.4900817871094	1583.868774414062	-170.9078979492188	400.2324829101562	1510.594604492188	-107.6901168823242	394.6421813964844	1216.003662109375	-87.07514953613281	400.1725769042969	1214.512451171875	-183.6303405761719	544.9457397460938	978.2291259765625	-80.75959014892578	468.640380859375	958.9694213867188	-58.60495758056641	418.1647033691406	1143.730346679688	-68.52310943603516	578.4677124023438	784.7435302734375	-91.9482421875	577.5952758789062	871.2396850585938	-69.88906860351562	508.4989624023438	861.0224609375	-48.39391326904297	405.232421875	1772.88671875	-274.7721557617188	562.484619140625	1845.087036132812	-410.9345703125	562.069091796875	1854.42529296875	-281.6245422363281	395.0805358886719	1766.95849609375	-409.9142761230469	498.9604797363281	1038.805786132812	-502.0099487304688	517.5631103515625	1032.788208007812	-142.4125823974609	597.87890625	1108.078247070312	-192.4913787841797	604.7579345703125	1106.746948242188	-459.0535278320312	523.4547119140625	538.4363403320312	-474.5291748046875	502.3824157714844	683.443603515625	-500.7386779785156	403.3948974609375	35.3980598449707	-470.3675842285156	418.06884765625	291.9488830566406	-502.3587341308594	636.5891723632812	37.62548065185547	-417.3214721679688	555.40771484375	42.57257461547852	-382.7052612304688	527.3533935546875	34.36663818359375	-497.6647338867188	335.2308044433594	37.93463134765625	-407.9825744628906	511.43359375	539.9917602539062	-178.8063354492188	537.1809692382812	819.2159423828125	-149.0698699951172	402.7852172851562	30.57562255859375	-201.7893829345703	483.8357543945312	406.8744812011719	-168.7626647949219	637.7034912109375	42.87619781494141	-247.3203277587891	576.807861328125	29.78630256652832	-291.3309326171875	537.675537109375	39.39654541015625	-177.1967163085938	346.6305236816406	32.88822174072266	-252.8605041503906	
143	1.42	393.3334655761719	1125.959594726562	-265.5876770019531	401.6505737304688	1126.2431640625	-400.1022033691406	391.4577331542969	1158.059692382812	-335.783447265625	601.9194946289062	1365.803588867188	-328.5792846679688	348.81494140625	1306.721557617188	-340.8005676269531	373.8861389160156	1599.707763671875	-356.1609497070312	561.3707275390625	1499.345581054688	-335.0614929199219	322.0710754394531	1414.615844726562	-269.4916687011719	373.3097839355469	1578.695434570312	-457.4002380371094	464.8589782714844	1568.049682617188	-520.005126953125	452.0910034179688	1434.565307617188	-589.8580322265625	476.4197082519531	1215.2939453125	-604.9262084960938	406.5191650390625	1202.092895507812	-553.6276245117188	581.4414672851562	963.3575439453125	-548.341064453125	502.8676452636719	933.5617065429688	-581.0240478515625	497.3588256835938	1099.868530273438	-604.9049682617188	595.4763793945312	769.302978515625	-520.3688354492188	533.5354614257812	859.0126342773438	-577.5579833984375	600.0888061523438	873.974609375	-556.3981323242188	419.4354858398438	1583.880249023438	-170.6829986572266	400.2028503417969	1510.605834960938	-107.4612503051758	394.6142272949219	1216.022094726562	-86.82524108886719	400.0902709960938	1214.522583007812	-183.3609466552734	544.8865356445312	978.2275390625	-80.45870971679688	468.5762329101562	958.9837036132812	-58.30598831176758	418.0477294921875	1143.748779296875	-68.26994323730469	578.3270263671875	784.7279052734375	-91.62931060791016	577.4133911132812	871.2216186523438	-69.60674285888672	508.3897705078125	861.032470703125	-48.09309387207031	405.1686096191406	1772.890380859375	-274.5300598144531	562.4521484375	1845.109130859375	-410.7195434570312	562.0460205078125	1854.403442382812	-281.3531494140625	395.0614318847656	1767.003540039062	-409.676513671875	498.9732666015625	1038.8095703125	-501.7956237792969	517.5296020507812	1032.779418945312	-142.2096862792969	597.8375244140625	1108.05322265625	-192.2842864990234	604.8690185546875	1106.878295898438	-458.9711608886719	523.4196166992188	538.4641723632812	-474.4412231445312	502.3549194335938	683.4644775390625	-500.5973815917969	403.3921508789062	35.40908813476562	-470.3646850585938	418.0491333007812	291.9624328613281	-502.2886352539062	636.593017578125	37.6163215637207	-417.3226623535156	555.4129028320312	42.56994247436523	-382.6986083984375	527.3521118164062	34.3722038269043	-497.6601867675781	335.2340087890625	37.92918014526367	-407.9700012207031	511.3470458984375	539.9896240234375	-178.6828155517578	537.069091796875	819.2445678710938	-148.8789520263672	402.7891845703125	30.5612735748291	-201.7844848632812	483.7730407714844	406.8627319335938	-168.6610565185547	637.6915893554688	42.88092422485352	-247.3189849853516	576.802001953125	29.79238891601562	-291.3316955566406	537.6712036132812	39.39797592163086	-177.1892700195312	346.6217346191406	32.8764533996582	-252.8541870117188	
